#!OML:ASF H:\Dans Jumps\Project 1\Capture day 1\Session 1\subject.ASF
:FULLY-SPECIFIED
:DEGREES
265
root 0.311691 15.5653 -14.7056 29.5022 1.3148 -2.02488
lowerback 18.9005 0.400637 -1.73957
upperback 1.02032 0.439737 2.81681
thorax -9.54865 0.35639 3.9569
lowerneck -20.4029 -0.154168 -2.64805
upperneck 8.55692 0.463742 0.284832
head 5.86727 0.155228 0.563945
rclavicle -4.17448e-015 3.33958e-014
rhumerus -22.8209 -20.6499 -75.6207
rradius 22.3463
rwrist 32.6
rhand -18.646 -26.227
rfingers 7.12502
rthumb 7.64683 -56.0687
lclavicle -4.17448e-015 3.33958e-014
lhumerus -15.8907 14.1219 81.7057
lradius 14.2386
lwrist -8.1457
lhand -23.621 -5.28655
lfingers 7.12502
lthumb 2.84336 24.6742
rfemur -63.8879 1.61242 19.5107
rtibia 65.9068
rfoot -32.7249 -19.7196
rtoes 2.59239
lfemur -64.701 2.96849 -17.6769
ltibia 64.8218
lfoot -26.6327 21.3899
ltoes -14.7094
266
root 0.297331 15.5119 -14.6702 30.2916 1.25062 -2.0215
lowerback 19.1406 0.548869 -1.94088
upperback 0.733718 0.594747 2.82013
thorax -10.0162 0.451837 4.043
lowerneck -20.7939 -0.245882 -2.70247
upperneck 8.34416 0.35602 0.361156
head 5.86127 0.109329 0.585642
rclavicle -1.59028e-015 8.34896e-015
rhumerus -22.4479 -20.9514 -75.6782
rradius 22.0856
rwrist 32.9583
rhand -18.69 -26.1997
rfingers 7.12502
rthumb 7.60438 -56.043
lclavicle -1.59028e-015 8.34896e-015
lhumerus -15.2414 15.2953 81.6759
lradius 13.896
lwrist -9.31295
lhand -23.6278 -5.42368
lfingers 7.12502
lthumb 2.83677 24.5372
rfemur -64.9948 1.65402 19.5407
rtibia 66.6482
rfoot -32.8593 -20.2026
rtoes 3.25329
lfemur -65.8063 3.055 -17.6772
ltibia 65.5277
lfoot -26.658 21.426
ltoes -14.6234
267
root 0.282462 15.4558 -14.6304 31.0269 1.16759 -2.01799
lowerback 19.372 0.703438 -2.15604
upperback 0.476927 0.752329 2.81579
thorax -10.4493 0.548834 4.12582
lowerneck -21.1763 -0.337231 -2.7462
upperneck 8.08573 0.247671 0.425102
head 5.83899 0.0629557 0.601308
rclavicle -2.5842e-015 -8.34896e-015
rhumerus -21.973 -21.387 -75.7481
rradius 21.7636
rwrist 33.5303
rhand -18.7304 -26.1616
rfingers 7.12502
rthumb 7.56541 -56.0063
lclavicle -2.5842e-015 -8.34896e-015
lhumerus -14.5256 16.584 81.6673
lradius 13.5315
lwrist -10.5332
lhand -23.6547 -5.58621
lfingers 7.12502
lthumb 2.81087 24.375
rfemur -66.0385 1.67955 19.5819
rtibia 67.3966
rfoot -32.9548 -20.5882
rtoes 3.68081
lfemur -66.8494 3.19137 -17.6988
ltibia 66.2585
lfoot -26.6592 21.4228
ltoes -14.644
268
root 0.267476 15.397 -14.5854 31.6909 1.06643 -2.02745
lowerback 19.5917 0.862439 -2.36909
upperback 0.256748 0.913664 2.80613
thorax -10.8383 0.646724 4.19822
lowerneck -21.5298 -0.421858 -2.76467
upperneck 7.76835 0.144732 0.458831
head 5.79289 0.0180537 0.603537
rclavicle 1.98785e-015 -8.74653e-015
rhumerus -21.3929 -21.9304 -75.8433
rradius 21.3903
rwrist 34.3136
rhand -18.7997 -26.112
rfingers 7.12502
rthumb 7.49852 -55.959
lclavicle 1.98785e-015 -8.74653e-015
lhumerus -13.7552 17.9639 81.6878
lradius 13.1732
lwrist -11.8141
lhand -23.7015 -5.75503
lfingers 7.12502
lthumb 2.76562 24.2068
rfemur -66.9977 1.69324 19.6449
rtibia 68.1506
rfoot -33.0285 -20.8608
rtoes 3.88367
lfemur -67.8122 3.38656 -17.7343
ltibia 67.024
lfoot -26.6545 21.3936
ltoes -14.7588
269
root 0.252919 15.3356 -14.5347 32.2608 0.952789 -2.06863
lowerback 19.8078 1.02082 -2.55891
upperback 0.078312 1.07771 2.79814
thorax -11.1809 0.743665 4.25612
lowerneck -21.854 -0.495637 -2.7657
upperneck 7.40425 0.0541369 0.465917
head 5.72669 -0.0221641 0.595593
rclavicle -6.16232e-015 9.93923e-016
rhumerus -20.7038 -22.5444 -75.9756
rradius 20.9728
rwrist 35.2881
rhand -18.89 -26.0693
rfingers 7.12502
rthumb 7.4113 -55.9195
lclavicle -6.16232e-015 9.93923e-016
lhumerus -12.9469 19.4312 81.7401
lradius 12.8411
lwrist -13.1747
lhand -23.7548 -5.91255
lfingers 7.12502
lthumb 2.71413 24.0499
rfemur -67.8424 1.69574 19.7509
rtibia 68.9082
rfoot -33.082 -21.0536
rtoes 3.87553
lfemur -68.6701 3.6508 -17.771
ltibia 67.8324
lfoot -26.6506 21.3665
ltoes -14.9839
270
root 0.239235 15.272 -14.4777 32.7246 0.831612 -2.15344
lowerback 20.0206 1.17472 -2.7112
upperback -0.0600008 1.24357 2.79608
thorax -11.478 0.838252 4.29641
lowerneck -22.1587 -0.549599 -2.73705
upperneck 7.03313 -0.0138203 0.43395
head 5.65456 -0.0537345 0.572802
rclavicle -1.78906e-015 -2.22639e-014
rhumerus -19.9146 -23.1977 -76.153
rradius 20.5333
rwrist 36.3956
rhand -18.9874 -26.049
rfingers 7.12502
rthumb 7.31727 -55.9025
lclavicle -1.78906e-015 -2.22639e-014
lhumerus -12.1249 20.971 81.8225
lradius 12.553
lwrist -14.6203
lhand -23.8283 -6.0605
lfingers 7.12502
lthumb 2.64314 23.9029
rfemur -68.5536 1.6829 19.9181
rtibia 69.6673
rfoot -33.1283 -21.1982
rtoes 3.68356
lfemur -69.4095 3.98811 -17.7985
ltibia 68.6878
lfoot -26.6694 21.361
ltoes -15.3269
271
root 0.226975 15.2063 -14.4142 33.0844 0.707365 -2.29353
lowerback 20.2212 1.31941 -2.81099
upperback -0.165012 1.40982 2.80445
thorax -11.7309 0.928925 4.3161
lowerneck -22.4526 -0.582977 -2.68688
upperneck 6.69014 -0.0568469 0.37057
head 5.58912 -0.075471 0.539256
rclavicle -1.13307e-014 -1.45113e-014
rhumerus -19.0496 -23.8425 -76.3741
rradius 20.0949
rwrist 37.5918
rhand -19.0872 -26.0061
rfingers 7.12502
rthumb 7.221 -55.8629
lclavicle -1.13307e-014 -1.45113e-014
lhumerus -11.3112 22.5632 81.9314
lradius 12.3154
lwrist -16.1275
lhand -23.9377 -6.18137
lfingers 7.12502
lthumb 2.53748 23.7833
rfemur -69.1278 1.64797 20.1649
rtibia 70.4257
rfoot -33.169 -21.3296
rtoes 3.33348
lfemur -70.0325 4.40483 -17.8088
ltibia 69.5905
lfoot -26.7338 21.3938
ltoes -15.8715
272
root 0.216464 15.139 -14.3444 33.3502 0.587578 -2.48502
lowerback 20.3976 1.45091 -2.85183
upperback -0.248008 1.57346 2.82142
thorax -11.9444 1.01387 4.31064
lowerneck -22.7453 -0.596468 -2.62012
upperneck 6.41284 -0.0760582 0.289708
head 5.54398 -0.0872181 0.500131
rclavicle 1.49089e-014 2.32578e-014
rhumerus -18.1414 -24.4611 -76.6317
rradius 19.6948
rwrist 38.8315
rhand -19.1539 -25.9184
rfingers 7.12502
rthumb 7.15658 -55.7774
lclavicle 1.49089e-014 2.32578e-014
lhumerus -10.5214 24.1663 82.061
lradius 12.1208
lwrist -17.6322
lhand -24.1201 -6.31422
lfingers 7.12502
lthumb 2.36138 23.6525
rfemur -69.5679 1.57574 20.4965
rtibia 71.1794
rfoot -33.2172 -21.462
rtoes 2.87963
lfemur -70.5466 4.89423 -17.8022
ltibia 70.5327
lfoot -26.8659 21.4628
ltoes -16.6848
273
root 0.207771 15.071 -14.2679 33.5333 0.477125 -2.71392
lowerback 20.5452 1.56674 -2.84242
upperback -0.319633 1.72985 2.84646
thorax -12.127 1.09166 4.28634
lowerneck -23.0391 -0.597183 -2.55229
upperneck 6.21631 -0.0789759 0.211887
head 5.52452 -0.091513 0.463661
rclavicle -7.95139e-016 -7.7526e-015
rhumerus -17.2212 -24.9763 -76.924
rradius 19.3828
rwrist 39.9857
rhand -19.161 -25.7739
rfingers 7.12502
rthumb 7.14971 -55.6331
lclavicle -7.95139e-016 -7.7526e-015
lhumerus -9.76628 25.7322 82.2107
lradius 11.9632
lwrist -19.0447
lhand -24.3981 -6.48218
lfingers 7.12502
lthumb 2.09289 23.4873
rfemur -69.8776 1.45534 20.9011
rtibia 71.923
rfoot -33.3047 -21.586
rtoes 2.33692
lfemur -70.9556 5.44203 -17.7847
ltibia 71.5006
lfoot -27.0855 21.5584
ltoes -17.7967
